
<svg id="Layer_1" data-name="Layer 1" xmlns="http://www.w3.org/2000/svg" viewBox="0 0 1000 350"><defs><style>.cls-1{fill:#842425;}.cls-2{fill:#c24954;}</style></defs><path class="cls-1" d="M56,37.47V54H30.18V67.28H54.33V83.16H30.18V98.61H56.94v16.54H10V37.47Z"/><path class="cls-1" d="M79.14,56.29l5.55,42.32h.21l5.44-42.32h20.24L96.22,115.15H73.15L59.23,56.29Z"/><path class="cls-1" d="M133.75,37.47V52.05H114.17V37.47Zm0,18.82v58.86H114.17V56.29Z"/><path class="cls-1" d="M161.82,37.47v77.68H142.24V37.47Z"/><path class="cls-1" d="M275.88,97.09a25.92,25.92,0,0,1-3.43,9.84,18.56,18.56,0,0,1-7.56,6.86q-5,2.55-13.22,2.55-8.59,0-13.59-2.33a16.67,16.67,0,0,1-7.51-6.53,24.92,24.92,0,0,1-3.21-9.79,96.46,96.46,0,0,1-.71-12,76.86,76.86,0,0,1,.82-11.32,26.29,26.29,0,0,1,3.43-9.9,19.09,19.09,0,0,1,7.56-7q4.95-2.67,13.21-2.67,8.59,0,13.6,2.45a17.16,17.16,0,0,1,7.51,6.69A25.38,25.38,0,0,1,276,73.75a96.57,96.57,0,0,1,.71,12A78.25,78.25,0,0,1,275.88,97.09Zm-29.43-2.23a24.77,24.77,0,0,0,.87,5.6,5.5,5.5,0,0,0,1.69,2.83,4.37,4.37,0,0,0,2.66.76,4.6,4.6,0,0,0,2.72-.76,5,5,0,0,0,1.69-2.83,27.08,27.08,0,0,0,.82-5.6q.21-3.54.21-9.09c0-3.69-.07-6.74-.21-9.13a27.32,27.32,0,0,0-.82-5.66,5,5,0,0,0-1.69-2.83,4.6,4.6,0,0,0-2.72-.76,4.37,4.37,0,0,0-2.66.76A5.5,5.5,0,0,0,247.32,71a25,25,0,0,0-.87,5.66c-.14,2.39-.22,5.44-.22,9.13S246.31,92.5,246.45,94.86Z"/><path class="cls-1" d="M301.17,56.29v9.36h.22a15.73,15.73,0,0,1,5.22-8.11,12.69,12.69,0,0,1,7.94-2.77h3.16V73.05c-.87-.15-1.71-.26-2.5-.33s-1.6-.11-2.4-.11q-5.22,0-8.1,2.29t-2.88,8.16v32.09H282.24V56.29Z"/><path class="cls-1" d="M340.34,56.29v8.05h.21q3.38-9.57,13.38-9.57,9.79,0,13.71,7.94T371.56,87a64.21,64.21,0,0,1-1.31,14.14,26.78,26.78,0,0,1-3.64,9.09A12.67,12.67,0,0,1,361,115a19.39,19.39,0,0,1-7.45,1.36,16.6,16.6,0,0,1-7.45-1.63c-2.22-1.09-3.83-3.15-4.84-6.2H341V134H321.41V56.29Zm.87,37.32a22.35,22.35,0,0,0,.81,5.06,4.86,4.86,0,0,0,1.69,2.66,4.6,4.6,0,0,0,2.72.76,4.83,4.83,0,0,0,2.83-.76,4.91,4.91,0,0,0,1.68-2.66,22.85,22.85,0,0,0,.82-5.06c.14-2.11.22-4.75.22-7.94s-.08-5.82-.22-7.89a22.64,22.64,0,0,0-.82-5,5,5,0,0,0-1.68-2.66,4.83,4.83,0,0,0-2.83-.76,4.6,4.6,0,0,0-2.72.76A4.94,4.94,0,0,0,342,72.77a22.14,22.14,0,0,0-.81,5q-.22,3.1-.22,7.89C341,88.86,341.06,91.5,341.21,93.61Z"/><path class="cls-1" d="M202.12,93.12a28.61,28.61,0,0,1-.92,5.82,6,6,0,0,1-1.85,3.1,4.83,4.83,0,0,1-3,.92,5.29,5.29,0,0,1-3.64-1.19,8,8,0,0,1-2.07-4.25,46.17,46.17,0,0,1-.92-8.21q-.22-5.16-.22-13t.22-13a46.28,46.28,0,0,1,.92-8.21,8,8,0,0,1,2.07-4.25,5.34,5.34,0,0,1,3.64-1.19,4.47,4.47,0,0,1,4.24,2.39q1.31,2.4,1.31,9v4.35h19.58V60.54a35.18,35.18,0,0,0-1.36-10.18c-.21-.7-.46-1.38-.73-2,12.42-14.53-13.19-20.2-13.19-20.2a64.45,64.45,0,0,1,4.47,10.76,21.9,21.9,0,0,0-2.68-1.19A34.23,34.23,0,0,0,196.3,36a35.81,35.81,0,0,0-13.16,2.12,18.7,18.7,0,0,0-3.52,1.85,62.23,62.23,0,0,1,4.77-11.8s-26.89,5.95-12.2,21.29a38.67,38.67,0,0,0-2.27,8.08,110.31,110.31,0,0,0-1.36,18.82,128.64,128.64,0,0,0,1.14,18.55,32.35,32.35,0,0,0,4.19,12.51,16.8,16.8,0,0,0,8.49,6.91,39.85,39.85,0,0,0,13.92,2.06,43.39,43.39,0,0,0,9.52-1,19.21,19.21,0,0,0,8.21-4,20.91,20.91,0,0,0,5.77-8.22A35.1,35.1,0,0,0,222,89.69V83.93H202.39C202.39,87.62,202.3,90.69,202.12,93.12Z"/><path class="cls-2" d="M110.17,157.49v36H54v28.91h52.6V257H54v33.64H112.3v36H10V157.49Z"/><path class="cls-2" d="M160.64,198.48l12.08,92.16h.48L185,198.48h44.08L197.84,326.66H147.61L117.28,198.48Z"/><path class="cls-2" d="M279.58,157.49v31.75H236.94V157.49Zm0,41V326.66H236.94V198.48Z"/><path class="cls-2" d="M340.71,157.49V326.66H298.06V157.49Z"/><path class="cls-2" d="M583.1,213.7A37.85,37.85,0,0,0,566.55,199q-11-5.4-30-5.4-18.23,0-29.14,5.88a42.21,42.21,0,0,0-16.67,15.47,58.59,58.59,0,0,0-7.55,21.82,171.16,171.16,0,0,0-1.8,24.94A212,212,0,0,0,483,288.17,55,55,0,0,0,490,309.75q5.52,9.24,16.55,14.39t30,5.16q18.23,0,29.14-5.64a40.8,40.8,0,0,0,16.67-15.11,57.34,57.34,0,0,0,7.56-21.7,172.61,172.61,0,0,0,1.79-25,212,212,0,0,0-1.56-26.5A56,56,0,0,0,583.1,213.7Zm-35,68.23a59.12,59.12,0,0,1-1.8,12.35q-1.32,4.56-3.71,6.24a10.21,10.21,0,0,1-6,1.68,9.61,9.61,0,0,1-5.87-1.68c-1.53-1.12-2.76-3.2-3.72-6.24a53.29,53.29,0,0,1-1.92-12.35q-.48-7.79-.48-20t.48-20.14A53.84,53.84,0,0,1,527,229.29c1-3,2.19-5.12,3.72-6.24a9.61,9.61,0,0,1,5.87-1.68,10.21,10.21,0,0,1,6,1.68q2.38,1.68,3.71,6.24a59.71,59.71,0,0,1,1.8,12.47q.48,7.91.48,20.14T548.08,281.93Z"/><path class="cls-2" d="M657.69,199.67q-7.92,6.11-11.51,17.86h-.48V196.91H604V326.66h43.17V255.91q0-13,6.35-18t17.87-5c1.76,0,3.52.09,5.28.24s3.59.4,5.51.72V193.55H675.2A28,28,0,0,0,657.69,199.67Z"/><path class="cls-2" d="M753.86,282.53q0,8.16-2.4,11.75c-1.6,2.4-4.31,3.6-8.15,3.6s-6.56-1.2-8.16-3.6-2.39-6.31-2.39-11.75V196.91H689.58v97.85q0,10.32,2.64,17.15a26.66,26.66,0,0,0,7.2,10.79A23.5,23.5,0,0,0,710.09,328a63.15,63.15,0,0,0,13.31,1.32q23.26,0,31.42-18.47h.48v15.83H797V196.91H753.86Z"/><path class="cls-2" d="M982.18,211.54A27.9,27.9,0,0,0,975,200.75a25,25,0,0,0-10.68-5.64A53.7,53.7,0,0,0,951,193.55,41,41,0,0,0,932.18,198q-8.76,4.44-13.79,15.47-4.08-10.08-11.16-15t-20.5-4.92q-23,0-31.42,19.19h-.48V196.91H813.1V326.66h43.17V241q0-8.16,2.4-11.75t8.15-3.6q5.76,0,8.16,3.6T877.37,241v85.62h43.18V241q0-8.16,2.39-11.75t8.16-3.6c3.84,0,6.55,1.2,8.15,3.6s2.4,6.31,2.4,11.75v85.62h43.17V228.81Q984.82,218.25,982.18,211.54Z"/><path class="cls-2" d="M455.33,126.6s.08.14.21.4a59.19,59.19,0,0,1,6.71,27.44v1h-79.7v-1A59.31,59.31,0,0,1,389.26,127c.13-.26.21-.4.21-.4s-39,8.64-17.69,30.89h0V326.66h44.61V256.15h53.24v-35H416.42V191.87h56.84V157.23C494,135.17,455.33,126.6,455.33,126.6Z"/></svg>
